# xmcd
#
# Track frame offsets:
#	150
#	11813
#	24780
#	39736
#	54818
#	68729
#	81444
#	96816
#	114819
#	129413
#	143588
#	155449
#	170496
#	190253
#	203939
#	218769
#	236019
#	251823
#	267478
#	280725
#
# Disc length: 3954 seconds
#
# Revision: 0
# Processed by: cddbd v1.5.1PL0 Copyright (c) Steve Scherf et al.
# Submitted via: dBpowerAMP V4.0
#
DISCID=140f7014
DTITLE=vários - Caí no Laço
DYEAR=2005
DGENRE=Country
TTITLE0=Nóis Gosta de Muié -Gilberto e Gilmar
TTITLE1=Clube do Batidão - Rio Negro e Solimões
TTITLE2=Galera Coração - Edsone Hudson
TTITLE3=Agita ai - Gino e Geno
TTITLE4=Demorô - Gilberto e Gilmar
TTITLE5=Balançou Sacudiu - Gilberto e Gilmar
TTITLE6=Solte a Garganta - Edson e Hudson
TTITLE7=A Mulher e a Bebida - Gino e Geno
TTITLE8=Paixão Maluca - Gilberto e Gilmar
TTITLE9=Ajeite o Trem ai - Rio Negro e Solimões
TTITLE10=Chega Junto -Edson e Hudson
TTITLE11=A Galera do Chapéu -Gino e Geno
TTITLE12=Um pedacinho do se
TTITLE13=Festa do Pé - Rio Negro e Solimões
TTITLE14=O Caldeirão vai Ferver - Edson e Hudson
TTITLE15=O Gavião - Gino e Geno
TTITLE16=Cunhado - Gilberto e Gilmar
TTITLE17=O Carro dela Quebrou - Rio Negro e Solimões
TTITLE18=Abre a Janela - Edson e Hudson
TTITLE19=Bebo Pa Carai - Gino e Geno
EXTD=
EXTT0=
EXTT1=
EXTT2=
EXTT3=
EXTT4=
EXTT5=
EXTT6=
EXTT7=
EXTT8=
EXTT9=
EXTT10=
EXTT11=
EXTT12=
EXTT13=
EXTT14=
EXTT15=
EXTT16=
EXTT17=
EXTT18=
EXTT19=
PLAYORDER=
